<?xml version="1.0" standalone="no"?>
<!DOCTYPE svg PUBLIC "-//W3C//DTD SVG 20010904//EN"
 "http://www.w3.org/TR/2001/REC-SVG-20010904/DTD/svg10.dtd">
<svg version="1.0" xmlns="http://www.w3.org/2000/svg"
 width="200.000000pt" height="200.000000pt" viewBox="0 0 200.000000 200.000000"
 preserveAspectRatio="xMidYMid meet">

<g transform="translate(0.000000,200.000000) scale(0.100000,-0.100000)"
fill="#000000" stroke="none">
<path d="M930 1922 c-78 -22 -144 -80 -264 -230 -31 -40 -97 -114 -145 -165
-100 -105 -201 -232 -201 -253 0 -8 -7 -26 -16 -40 -15 -23 -15 -26 0 -43 9
-9 16 -27 16 -38 0 -11 20 -36 48 -60 37 -31 58 -41 97 -46 45 -5 78 -17 135
-49 43 -24 73 -30 155 -31 72 -2 96 2 118 16 14 9 33 17 40 17 16 0 129 116
149 153 21 39 83 104 114 119 16 7 30 22 32 33 2 11 19 36 37 55 19 19 39 46
44 60 6 14 15 32 20 40 45 79 52 118 26 140 -8 7 -15 20 -15 29 0 32 -221 242
-284 270 -42 18 -88 29 -106 23z m73 -126 c38 -16 167 -147 191 -193 9 -18 16
-43 16 -56 0 -26 -59 -122 -109 -177 -18 -19 -56 -62 -84 -95 -97 -111 -152
-167 -179 -181 -49 -25 -132 -13 -219 31 -15 8 -36 15 -46 15 -24 0 -94 37
-110 58 -7 9 -13 31 -13 49 0 35 7 44 140 188 101 110 215 241 255 293 19 25
67 67 83 74 26 10 40 9 75 -6z"/>
<path d="M1420 1255 c-7 -8 -20 -15 -30 -15 -9 0 -29 -9 -43 -20 -14 -11 -32
-20 -41 -20 -9 0 -22 -12 -28 -27 -7 -16 -51 -69 -100 -119 l-88 -91 0 -76 0
-75 42 -37 c23 -19 54 -38 68 -41 14 -3 36 -11 50 -18 14 -7 38 -16 54 -20 16
-4 41 -16 54 -27 29 -23 80 -25 108 -4 10 8 27 15 37 15 10 0 63 45 117 100
l100 99 0 74 c0 69 -2 77 -35 120 -19 25 -35 50 -35 54 0 14 -63 70 -87 77
-11 4 -27 13 -33 21 -7 8 -23 15 -35 15 -12 0 -28 7 -35 15 -7 8 -16 15 -20
15 -4 0 -13 -7 -20 -15z m72 -154 c37 -14 87 -71 94 -107 3 -18 3 -46 -1 -63
-9 -44 -88 -117 -145 -136 -45 -15 -51 -15 -106 4 -91 33 -126 78 -104 136 13
33 129 151 162 164 30 13 71 13 100 2z"/>
<path d="M315 916 c-29 -23 -30 -28 -29 -98 0 -74 0 -75 55 -147 30 -40 80
-104 113 -144 32 -40 66 -83 74 -97 9 -14 34 -45 57 -70 22 -25 51 -60 65 -79
72 -96 183 -221 213 -240 24 -15 51 -21 90 -21 49 0 61 4 106 40 28 22 51 45
51 50 0 5 36 47 80 94 95 100 130 159 130 221 0 69 -14 93 -66 115 -25 11 -58
29 -73 39 -14 10 -41 21 -59 24 -19 4 -45 16 -59 27 -14 11 -34 20 -43 20 -10
0 -23 7 -30 15 -7 8 -28 17 -49 21 -20 3 -45 12 -57 19 -11 7 -36 18 -55 23
-64 20 -122 43 -143 57 -11 8 -28 15 -37 15 -9 0 -22 7 -29 15 -7 8 -19 15
-27 15 -8 0 -26 9 -40 20 -14 11 -38 20 -54 20 -16 0 -46 14 -73 35 -54 41
-71 43 -111 11z m267 -217 c51 -11 109 -34 323 -129 22 -9 76 -32 120 -50 150
-63 170 -90 131 -174 -13 -28 -55 -85 -93 -126 -66 -70 -72 -75 -112 -75 -50
0 -55 5 -190 179 -46 59 -89 113 -95 119 -59 63 -150 186 -167 227 -7 15 7 40
22 40 4 0 32 -5 61 -11z"/>
</g>
</svg>
