<?xml version="1.0" standalone="no"?>
<!DOCTYPE svg PUBLIC "-//W3C//DTD SVG 20010904//EN"
 "http://www.w3.org/TR/2001/REC-SVG-20010904/DTD/svg10.dtd">
<svg version="1.0" xmlns="http://www.w3.org/2000/svg"
 width="833.000000pt" height="833.000000pt" viewBox="0 0 833.000000 833.000000"
 preserveAspectRatio="xMidYMid meet">

<g transform="translate(0.000000,833.000000) scale(0.100000,-0.100000)"
fill="#000000" stroke="none">
<path d="M3650 7858 c-102 -7 -134 -13 -173 -33 -26 -13 -82 -31 -125 -40
-122 -24 -234 -84 -316 -169 -158 -163 -197 -277 -211 -611 -3 -77 -8 -190
-11 -251 l-6 -111 -291 -7 c-471 -11 -665 -29 -717 -67 -17 -13 -54 -24 -100
-30 -150 -18 -284 -114 -329 -233 -52 -138 -49 -282 6 -308 18 -8 31 -26 38
-49 17 -59 61 -116 209 -268 122 -124 246 -236 349 -314 16 -12 62 -51 102
-87 246 -220 374 -327 505 -422 69 -50 148 -108 175 -128 28 -20 79 -58 115
-83 36 -26 101 -74 145 -108 44 -34 94 -70 111 -79 69 -39 177 -132 309 -267
129 -131 144 -143 185 -149 37 -6 57 -19 116 -75 94 -89 113 -93 429 -92 272
0 350 10 378 47 13 18 34 28 75 36 54 11 61 16 158 116 55 57 103 104 107 104
12 0 266 186 360 263 26 21 47 47 47 57 0 24 73 87 130 113 59 26 101 60 237
188 109 103 140 124 213 150 23 8 84 61 175 153 77 78 163 155 190 170 28 16
79 57 115 91 36 34 108 96 160 138 52 41 170 149 261 239 128 127 171 176 194
221 28 58 28 59 23 202 -9 217 -25 239 -263 356 -185 90 -277 102 -877 115
l-326 6 -6 112 c-20 427 -27 516 -41 566 -9 30 -20 75 -25 99 -6 24 -21 54
-35 67 -14 13 -25 27 -25 33 0 19 -122 133 -188 175 -89 57 -163 87 -231 93
-32 4 -80 18 -111 34 -49 25 -71 29 -208 39 -180 12 -821 11 -1002 -2z m1165
-117 c115 -16 225 -45 292 -78 72 -34 206 -166 246 -240 63 -117 82 -318 39
-400 -26 -50 -47 -63 -98 -63 -79 0 -130 50 -232 226 -98 170 -176 197 -621
214 -319 13 -547 12 -696 -1 -277 -23 -380 -79 -487 -263 -100 -171 -192 -218
-277 -141 -51 46 -65 97 -59 217 4 72 11 109 33 163 52 127 65 140 245 252 91
57 171 100 179 98 7 -3 32 0 55 6 22 7 86 15 141 20 149 11 1146 3 1240 -10z
m-140 -501 c140 -24 205 -78 281 -235 62 -128 90 -254 66 -292 -14 -22 -137
-33 -487 -44 -370 -12 -949 -5 -1074 12 -158 22 -188 54 -152 164 31 97 98
226 143 279 59 69 155 110 298 129 73 10 856 -1 925 -13z m1620 -780 c280 -9
387 -20 441 -46 42 -20 100 -76 135 -133 49 -77 36 -191 -37 -331 -71 -135
-216 -300 -298 -340 -29 -14 -95 -68 -165 -135 -64 -61 -137 -124 -163 -139
-27 -15 -48 -34 -48 -41 0 -18 -69 -77 -445 -380 -176 -142 -358 -290 -405
-329 -122 -103 -213 -173 -314 -247 -49 -35 -112 -85 -140 -111 -105 -96 -283
-191 -451 -242 -61 -18 -94 -21 -255 -20 -173 0 -190 2 -265 27 -44 14 -114
46 -155 69 -100 57 -310 214 -310 232 0 15 -72 85 -135 131 -22 16 -62 49 -89
73 -28 24 -66 52 -86 62 -36 18 -236 167 -405 301 -49 40 -108 80 -130 90 -44
19 -150 107 -280 229 -44 42 -98 89 -120 105 -22 16 -58 48 -81 72 -24 26 -53
45 -72 49 -18 4 -41 17 -51 30 -11 13 -56 56 -102 94 -140 119 -283 290 -345
413 -88 174 -79 303 28 408 85 83 155 98 538 108 376 11 3890 12 4205 1z"/>
<path d="M1760 4817 c-43 -22 -59 -58 -71 -152 -16 -133 -24 -2166 -9 -2394
18 -281 32 -329 142 -483 44 -62 90 -134 103 -159 45 -88 151 -163 308 -218
46 -16 63 -18 82 -9 19 9 31 7 62 -12 27 -16 64 -25 123 -31 47 -4 441 -13
877 -20 634 -10 947 -10 1580 0 433 7 822 16 863 21 41 5 120 13 175 19 171
18 212 33 308 114 96 82 107 94 107 124 0 31 1 33 101 174 80 112 95 145 115
246 31 162 36 398 31 1474 -5 1073 -10 1216 -42 1266 -21 31 -65 52 -96 46
-15 -3 -65 -36 -113 -74 -48 -38 -91 -69 -97 -69 -14 0 -62 -34 -125 -90 -29
-25 -94 -74 -145 -110 -51 -36 -136 -108 -189 -160 -106 -104 -155 -146 -215
-187 -22 -14 -81 -65 -131 -113 -60 -58 -103 -91 -130 -100 -54 -17 -107 -52
-183 -124 -92 -86 -131 -114 -185 -132 -38 -13 -58 -29 -96 -78 -50 -63 -72
-80 -125 -91 -16 -3 -86 -32 -155 -65 -175 -82 -242 -95 -470 -95 -157 1 -198
4 -274 23 -132 33 -358 153 -484 256 -24 20 -68 43 -97 52 -47 13 -71 31 -163
118 -60 56 -124 109 -143 118 -19 9 -58 37 -87 62 -30 25 -57 46 -62 46 -4 0
-40 29 -80 65 -40 36 -107 89 -149 119 -42 29 -82 60 -90 69 -7 10 -21 17 -31
17 -10 0 -64 48 -121 108 -57 59 -133 127 -169 151 -36 24 -74 51 -85 60 -20
17 -94 48 -168 71 -28 9 -51 29 -89 76 -60 77 -76 87 -108 71z m267 -247 c101
-48 230 -142 337 -245 55 -53 141 -127 191 -165 51 -38 122 -96 159 -129 36
-33 83 -69 103 -80 21 -10 47 -29 58 -41 11 -12 33 -29 49 -37 16 -8 61 -41
100 -73 39 -31 127 -96 196 -144 69 -47 136 -96 150 -108 14 -13 41 -30 60
-39 19 -9 57 -33 85 -54 161 -124 335 -180 595 -192 197 -9 400 22 534 81 144
64 776 510 1006 711 41 36 117 97 168 135 51 39 103 87 114 107 19 32 106 102
264 213 76 53 200 101 254 98 37 -3 47 -7 58 -30 29 -61 36 -347 36 -1458 l0
-1105 -78 -140 c-43 -77 -99 -171 -123 -210 -50 -78 -154 -183 -187 -189 -219
-40 -589 -49 -1986 -50 -1237 0 -1746 10 -1856 34 -25 6 -81 24 -124 40 -117
46 -189 128 -290 335 -98 198 -100 231 -107 1235 -5 838 5 1349 29 1445 10 38
21 55 48 73 42 28 65 25 157 -18z"/>
<path d="M7112 4483 c-15 -12 -25 -35 -31 -72 -6 -37 -16 -61 -30 -73 -41 -32
-45 -143 -46 -1083 0 -933 6 -1070 46 -1124 12 -17 22 -53 28 -102 13 -116 32
-139 116 -139 61 0 142 30 230 85 87 54 190 162 205 214 5 20 10 143 10 274 0
151 4 237 10 237 12 0 14 157 1 162 -10 3 -15 950 -5 1075 l6 83 -41 49 c-23
27 -41 53 -41 58 0 6 -36 37 -79 69 -44 32 -89 75 -100 95 -31 55 -95 122
-153 162 -68 46 -98 53 -126 30z m214 -307 c73 -34 157 -125 205 -221 39 -77
41 -87 50 -220 7 -94 6 -356 -1 -794 l-11 -655 -31 -55 c-61 -109 -95 -131
-213 -139 -96 -6 -117 3 -145 58 -28 56 -38 175 -50 595 -17 616 -7 1273 20
1373 13 49 51 82 94 82 17 0 54 -11 82 -24z"/>
<path d="M1093 4469 c-33 -21 -93 -102 -93 -126 0 -7 -4 -13 -8 -13 -5 0 -49
-37 -99 -82 -50 -46 -101 -90 -113 -98 -19 -14 -39 -64 -44 -117 -1 -12 -7
-28 -13 -35 -20 -25 -25 -189 -24 -820 2 -1033 11 -1093 193 -1199 157 -92
261 -116 310 -72 34 30 75 125 87 198 67 428 68 2040 0 2297 -20 77 -125 113
-196 67z m79 -270 c15 -30 19 -92 29 -460 13 -470 6 -1345 -11 -1479 -19 -146
-58 -195 -158 -195 -95 0 -190 64 -237 158 -42 88 -47 232 -35 1032 l11 700
112 113 c135 136 188 174 237 170 29 -2 38 -9 52 -39z"/>
</g>
</svg>
