<?xml version="1.0" standalone="no"?>
<!DOCTYPE svg PUBLIC "-//W3C//DTD SVG 20010904//EN"
 "http://www.w3.org/TR/2001/REC-SVG-20010904/DTD/svg10.dtd">
<svg version="1.0" xmlns="http://www.w3.org/2000/svg"
 width="256.000000pt" height="256.000000pt" viewBox="0 0 256.000000 256.000000"
 preserveAspectRatio="xMidYMid meet">

<g transform="translate(0.000000,256.000000) scale(0.100000,-0.100000)"
fill="#000000" stroke="none">
<path d="M640 1986 c0 -2 34 -45 75 -96 l75 -92 0 -67 0 -67 -56 -54 c-292
-284 -300 -754 -18 -1059 l61 -66 -78 -86 c-44 -47 -79 -89 -79 -92 0 -4 268
-7 595 -7 l594 0 125 138 125 137 -95 3 -95 3 34 47 c50 68 94 160 119 249 31
110 31 286 0 396 -95 337 -393 567 -734 567 l-88 0 0 75 0 75 -280 0 c-154 0
-280 -2 -280 -4z m498 -761 l-4 -705 389 0 c236 0 387 -4 385 -9 -1 -5 -29
-39 -61 -75 l-58 -66 -516 0 -515 0 46 54 46 54 0 674 c0 659 -1 674 -21 698
-11 14 -29 37 -40 53 l-20 27 187 0 187 0 -5 -705z m280 540 c94 -19 236 -87
311 -148 112 -94 203 -238 235 -377 20 -83 20 -247 0 -330 -19 -84 -82 -211
-136 -277 -38 -47 -47 -53 -81 -53 l-39 0 55 61 c144 158 200 386 147 593 -73
287 -326 486 -622 489 -83 1 -88 3 -88 22 0 12 3 25 7 28 12 12 132 7 211 -8z
m62 -104 c403 -140 547 -630 286 -969 -24 -32 -60 -70 -80 -85 l-35 -27 -225
0 -226 0 0 556 0 556 108 -4 c76 -3 126 -11 172 -27z m-690 -122 c0 -20 -13
-49 -35 -79 -86 -118 -127 -243 -126 -390 0 -145 43 -277 124 -383 28 -35 37
-57 37 -85 l-1 -37 -42 46 c-127 140 -194 357 -168 545 13 96 38 171 81 253
32 59 108 159 123 160 4 1 7 -13 7 -30z m-2 -651 l-3 -193 -37 60 c-64 105
-82 173 -83 310 0 140 20 219 82 324 l38 63 3 -185 c1 -102 1 -273 0 -379z"/>
</g>
</svg>
