<?xml version="1.0" standalone="no"?>
<!DOCTYPE svg PUBLIC "-//W3C//DTD SVG 20010904//EN"
 "http://www.w3.org/TR/2001/REC-SVG-20010904/DTD/svg10.dtd">
<svg version="1.0" xmlns="http://www.w3.org/2000/svg"
 width="200.000000pt" height="200.000000pt" viewBox="0 0 200.000000 200.000000"
 preserveAspectRatio="xMidYMid meet">

<g transform="translate(0.000000,200.000000) scale(0.100000,-0.100000)"
fill="#000000" stroke="none">
<path d="M588 1521 l-33 -29 -3 -517 -3 -516 35 -35 34 -34 501 0 c356 0 507
3 525 12 14 6 34 23 43 37 17 24 18 67 21 509 2 324 -1 495 -8 523 -8 28 -21
46 -43 59 -31 19 -54 20 -534 20 l-503 0 -32 -29z m187 -199 l30 -44 2 -179
c2 -208 -4 -193 116 -291 146 -118 189 -148 207 -148 10 0 40 18 67 40 26 22
72 59 102 81 30 23 76 63 103 89 l48 46 0 180 c0 179 0 180 28 222 32 50 68
64 89 36 20 -26 14 -794 -7 -819 -11 -13 -65 -15 -431 -15 -366 0 -420 2 -433
16 -14 13 -16 65 -16 409 0 216 3 401 6 410 12 30 56 14 89 -33z m420 -33 c53
-48 65 -84 65 -189 0 -100 -12 -136 -62 -187 -64 -65 -109 -56 -172 36 -27 39
-28 42 -24 160 l3 120 50 51 c31 31 58 50 72 50 14 0 43 -18 68 -41z"/>
</g>
</svg>
