<?xml version="1.0" standalone="no"?>
<!DOCTYPE svg PUBLIC "-//W3C//DTD SVG 20010904//EN"
 "http://www.w3.org/TR/2001/REC-SVG-20010904/DTD/svg10.dtd">
<svg version="1.0" xmlns="http://www.w3.org/2000/svg"
 width="200.000000pt" height="200.000000pt" viewBox="0 0 200.000000 200.000000"
 preserveAspectRatio="xMidYMid meet">

<g transform="translate(0.000000,200.000000) scale(0.100000,-0.100000)"
fill="#000000" stroke="none">
<path d="M566 1507 c-15 -11 -18 -29 -19 -116 -1 -130 0 -131 129 -131 122 0
124 2 124 129 0 127 -4 131 -126 131 -59 0 -96 -5 -108 -13z"/>
<path d="M947 1502 c-13 -15 -17 -39 -17 -114 0 -124 4 -128 128 -128 127 0
132 6 129 136 -4 122 -7 124 -132 124 -76 0 -95 -3 -108 -18z"/>
<path d="M1335 1506 c-16 -11 -19 -29 -22 -110 -3 -129 3 -136 125 -136 127 0
132 5 132 129 0 127 -4 131 -126 131 -61 0 -96 -4 -109 -14z"/>
<path d="M562 1118 c-12 -16 -19 -184 -8 -215 8 -26 3 -25 116 -28 125 -3 130
2 130 121 0 135 1 134 -124 134 -71 0 -107 -4 -114 -12z"/>
<path d="M946 1114 c-23 -23 -23 -206 0 -225 22 -18 208 -19 226 -1 18 18 20
191 2 220 -13 20 -22 22 -114 22 -76 0 -102 -4 -114 -16z"/>
<path d="M1326 1108 c-18 -29 -16 -202 2 -220 18 -18 204 -17 226 1 13 11 16
34 16 115 0 66 -4 106 -12 114 -8 8 -48 12 -115 12 -96 0 -104 -2 -117 -22z"/>
<path d="M570 733 c-18 -13 -20 -25 -20 -117 0 -66 4 -106 12 -114 19 -19 202
-16 222 4 23 23 23 206 0 225 -23 19 -187 20 -214 2z"/>
<path d="M970 742 c-32 -9 -40 -36 -40 -128 0 -122 2 -124 129 -124 78 0 101
3 112 16 17 21 19 208 2 225 -12 12 -171 21 -203 11z"/>
<path d="M1343 739 c-26 -9 -25 -5 -28 -119 -3 -126 1 -130 125 -130 129 0
130 1 130 130 0 92 -2 101 -22 114 -25 16 -167 19 -205 5z"/>
</g>
</svg>
