<?xml version="1.0" standalone="no"?>
<!DOCTYPE svg PUBLIC "-//W3C//DTD SVG 20010904//EN"
 "http://www.w3.org/TR/2001/REC-SVG-20010904/DTD/svg10.dtd">
<svg version="1.0" xmlns="http://www.w3.org/2000/svg"
 width="200.000000pt" height="200.000000pt" viewBox="0 0 200.000000 200.000000"
 preserveAspectRatio="xMidYMid meet">

<g transform="translate(0.000000,200.000000) scale(0.100000,-0.100000)"
fill="#000000" stroke="none">
<path d="M375 1852 c-33 -24 -46 -119 -26 -186 6 -17 21 -93 35 -170 28 -156
36 -170 122 -212 51 -25 91 -26 122 -1 34 27 -6 216 -65 301 -16 23 -35 55
-43 71 -8 17 -22 39 -32 50 -9 11 -32 49 -50 84 -34 66 -45 76 -63 63z m69
-162 c18 -10 39 -32 46 -47 8 -15 27 -47 43 -70 15 -24 34 -60 42 -82 17 -50
28 -143 18 -158 -28 -41 -142 -3 -154 52 -23 102 -46 325 -34 325 4 0 22 -9
39 -20z"/>
<path d="M1311 1760 c-24 -11 -61 -35 -82 -53 -21 -17 -70 -54 -109 -82 -39
-27 -89 -65 -111 -82 -23 -18 -45 -33 -49 -33 -20 0 -153 -126 -171 -162 -27
-54 -20 -76 49 -152 31 -34 62 -70 67 -80 6 -10 27 -20 50 -23 33 -4 46 -1 70
19 17 13 48 35 70 48 22 13 58 39 79 57 27 23 50 33 72 33 29 0 39 -8 83 -67
28 -38 87 -122 132 -188 140 -209 167 -249 198 -290 16 -22 42 -61 57 -87 35
-62 101 -97 138 -73 40 26 61 90 45 134 -6 14 -22 38 -36 53 -14 14 -39 49
-57 76 -17 27 -52 80 -79 118 -26 38 -55 80 -64 94 -10 14 -64 92 -121 174
-76 110 -102 155 -100 174 2 21 31 44 138 117 74 50 141 103 149 117 13 22 12
29 -5 63 -29 58 -62 77 -161 92 -177 25 -204 26 -252 3z m308 -41 c38 -15 81
-60 81 -85 0 -28 -27 -50 -172 -144 -64 -41 -122 -85 -127 -98 -13 -27 -10
-34 61 -138 192 -280 209 -304 278 -398 27 -38 50 -72 50 -76 0 -4 18 -30 40
-56 44 -53 52 -95 23 -126 -20 -23 -52 -23 -79 0 -11 9 -47 59 -80 110 -32 51
-90 134 -127 185 -38 50 -71 99 -75 107 -6 17 -169 248 -188 268 -30 30 -113
9 -181 -47 -66 -55 -152 -103 -170 -96 -26 9 -126 127 -133 156 -3 13 -4 35
-1 49 5 30 99 121 166 161 27 16 79 52 115 79 233 178 219 172 369 164 68 -3
136 -10 150 -15z"/>
<path d="M80 1315 c-10 -12 -3 -25 46 -77 87 -95 149 -147 181 -154 38 -8 81
10 94 40 10 21 7 32 -15 70 -29 49 -53 65 -128 86 -26 7 -55 21 -64 31 -21 24
-96 26 -114 4z m250 -100 c36 -34 40 -79 10 -95 -30 -16 -52 -5 -104 50 -64
68 -62 84 9 78 44 -4 62 -11 85 -33z"/>
<path d="M570 1098 c-23 -23 -57 -65 -76 -93 -18 -27 -61 -88 -96 -135 -60
-82 -62 -87 -62 -145 -1 -60 10 -99 44 -165 10 -19 26 -64 35 -100 17 -66 52
-136 83 -163 9 -8 40 -22 67 -30 28 -8 68 -22 90 -32 52 -22 198 -55 247 -55
55 0 78 15 128 82 25 34 59 80 75 102 54 73 122 180 130 204 4 16 -3 42 -23
85 -17 35 -37 92 -46 127 -8 36 -33 102 -56 148 -38 76 -46 85 -87 103 -24 10
-52 19 -61 19 -9 0 -30 7 -47 16 -16 8 -41 17 -55 19 -14 2 -61 13 -105 25
-138 38 -137 38 -185 -12z m199 -22 c54 -14 113 -34 132 -45 19 -12 47 -21 62
-21 55 0 95 -25 106 -67 6 -21 11 -43 11 -48 0 -6 11 -26 24 -45 13 -19 31
-68 40 -109 9 -40 26 -91 36 -112 11 -21 20 -43 20 -50 0 -13 -68 -127 -89
-149 -8 -8 -26 -33 -40 -55 -60 -93 -113 -155 -137 -161 -38 -10 -98 1 -216
41 -59 19 -115 35 -125 35 -25 0 -83 37 -83 53 0 8 -13 33 -29 58 -16 24 -36
73 -45 109 -9 36 -30 94 -46 129 -46 97 -45 100 50 231 25 34 55 78 66 97 35
57 116 133 142 133 12 0 67 -11 121 -24z"/>
<path d="M765 862 c-30 -22 -95 -178 -95 -228 0 -12 -18 -49 -41 -83 -47 -71
-65 -121 -46 -133 33 -23 178 21 237 72 19 16 38 30 42 30 4 0 14 12 22 28 13
25 12 33 -10 84 -13 31 -27 83 -30 115 -11 102 -40 144 -79 115z m44 -85 c6
-8 13 -29 17 -48 3 -19 12 -58 21 -87 8 -29 13 -63 9 -75 -6 -27 -94 -94 -144
-110 -20 -7 -49 -11 -64 -9 -36 4 -37 36 -4 80 24 33 41 75 71 175 9 32 24 64
32 72 18 19 47 19 62 2z"/>
</g>
</svg>
