<?xml version="1.0" standalone="no"?>
<!DOCTYPE svg PUBLIC "-//W3C//DTD SVG 20010904//EN"
 "http://www.w3.org/TR/2001/REC-SVG-20010904/DTD/svg10.dtd">
<svg version="1.0" xmlns="http://www.w3.org/2000/svg"
 width="200.000000pt" height="200.000000pt" viewBox="0 0 200.000000 200.000000"
 preserveAspectRatio="xMidYMid meet">

<g transform="translate(0.000000,200.000000) scale(0.100000,-0.100000)"
fill="#000000" stroke="none">
<path d="M951 1929 c-13 -5 -41 -24 -61 -42 -21 -17 -67 -54 -103 -82 -36 -27
-79 -71 -97 -96 l-31 -46 1 -416 c0 -345 3 -422 15 -452 19 -45 80 -102 142
-135 27 -13 68 -39 92 -57 26 -20 56 -33 73 -33 30 0 102 32 113 50 4 6 32 23
63 39 69 35 129 91 149 140 23 54 23 829 0 883 -18 42 -83 109 -142 146 -22
13 -58 41 -80 62 -43 41 -93 55 -134 39z m127 -104 c98 -74 162 -135 182 -176
19 -36 20 -61 20 -394 0 -228 -4 -372 -11 -400 -14 -54 -75 -114 -171 -168
-84 -47 -122 -48 -207 -5 -76 39 -132 86 -162 134 -21 35 -22 41 -22 430 l0
394 40 48 c58 69 209 182 243 182 18 0 50 -17 88 -45z"/>
<path d="M325 1499 c-16 -10 -57 -45 -90 -76 -33 -32 -86 -80 -118 -106 -71
-60 -74 -86 -20 -173 l38 -59 3 -149 c2 -82 1 -158 -2 -170 -3 -11 -23 -43
-46 -70 -45 -54 -52 -99 -22 -134 32 -37 137 -124 167 -139 46 -22 98 -55 135
-86 18 -15 54 -39 79 -52 25 -13 77 -48 114 -78 82 -65 220 -137 264 -137 23
0 38 9 58 32 26 31 27 36 23 118 -6 99 -30 165 -74 198 -16 13 -51 41 -79 63
-27 22 -81 59 -120 81 -80 48 -153 112 -167 148 -7 15 -10 153 -9 360 2 357 1
373 -47 423 -30 31 -46 33 -87 6z m64 -95 c20 -26 21 -38 21 -363 0 -314 1
-339 19 -372 30 -56 61 -84 141 -130 78 -44 190 -127 228 -167 33 -37 45 -92
31 -146 -13 -52 -30 -61 -95 -51 -28 4 -60 19 -87 40 -23 19 -69 52 -102 74
-33 22 -87 60 -120 85 -33 24 -82 56 -110 72 -82 45 -195 142 -195 167 0 12
16 47 35 77 l35 54 0 174 c0 162 -2 177 -24 226 -42 93 -44 89 65 196 100 98
124 108 158 64z"/>
<path d="M1580 1493 c-24 -10 -48 -46 -58 -88 -6 -25 -7 -149 -3 -325 8 -357
8 -361 -84 -447 -36 -34 -76 -65 -87 -69 -19 -6 -121 -79 -196 -140 -54 -44
-65 -77 -70 -200 -4 -105 -3 -113 18 -134 19 -19 29 -21 66 -16 68 9 181 72
285 158 25 21 48 38 52 38 11 0 88 50 117 76 14 12 52 37 85 56 34 18 93 58
132 88 111 86 117 118 46 219 l-48 66 -3 99 c-5 128 11 209 50 265 18 25 33
60 35 86 6 47 -7 65 -81 112 -22 14 -67 52 -100 84 -65 64 -116 87 -156 72z
m133 -125 c30 -29 71 -67 91 -85 43 -38 46 -69 14 -134 -21 -39 -23 -61 -26
-213 -4 -178 0 -198 45 -265 13 -19 23 -43 23 -53 0 -31 -95 -117 -188 -169
-31 -18 -82 -52 -112 -75 -30 -23 -70 -49 -87 -58 -18 -9 -59 -38 -90 -63 -75
-61 -118 -83 -164 -83 -54 0 -69 20 -69 93 0 46 5 68 21 92 26 37 125 115 217
170 88 52 155 121 171 175 9 32 12 122 10 355 -3 283 -2 314 14 338 29 44 67
37 130 -25z"/>
</g>
</svg>
