<?xml version="1.0" standalone="no"?>
<!DOCTYPE svg PUBLIC "-//W3C//DTD SVG 20010904//EN"
 "http://www.w3.org/TR/2001/REC-SVG-20010904/DTD/svg10.dtd">
<svg version="1.0" xmlns="http://www.w3.org/2000/svg"
 width="200.000000pt" height="200.000000pt" viewBox="0 0 200.000000 200.000000"
 preserveAspectRatio="xMidYMid meet">

<g transform="translate(0.000000,200.000000) scale(0.100000,-0.100000)"
fill="#000000" stroke="none">
<path d="M1429 1880 c-105 -10 -220 -88 -240 -163 -24 -89 23 -163 141 -222
67 -34 219 -49 285 -29 140 44 204 83 236 145 23 46 24 65 5 110 -20 47 -59
81 -141 122 -77 39 -160 50 -286 37z m194 -35 c160 -41 246 -133 206 -217 -17
-35 -95 -96 -142 -110 -26 -8 -97 -13 -182 -13 -124 0 -145 3 -180 22 -56 29
-125 106 -125 138 0 129 235 229 423 180z"/>
<path d="M1700 1360 c-64 -25 -90 -29 -180 -29 -70 -1 -110 3 -118 11 -10 10
-16 8 -29 -5 -16 -15 -15 -22 11 -99 47 -140 44 -136 92 -154 42 -16 49 -16
112 -1 207 50 282 109 282 219 0 93 -41 106 -170 58z m140 -26 c21 -53 -8
-117 -72 -158 -31 -20 -208 -66 -256 -66 -45 0 -76 34 -92 99 -18 77 -7 85
117 87 95 2 188 25 217 54 5 5 25 10 43 10 27 0 35 -5 43 -26z"/>
<path d="M285 1371 c-16 -4 -62 -29 -102 -55 -63 -40 -74 -52 -83 -87 -20 -73
-5 -117 59 -177 56 -52 73 -59 179 -79 43 -8 59 -7 85 6 36 18 42 39 53 185 5
71 9 82 40 116 39 43 41 53 14 80 -17 17 -33 20 -117 19 -54 -1 -111 -4 -128
-8z m209 -17 c21 -8 21 -48 0 -65 -28 -23 -42 -63 -48 -139 -11 -118 -14 -127
-48 -141 -24 -10 -45 -10 -94 -2 -55 10 -72 18 -117 58 -28 26 -56 54 -60 62
-14 24 -10 82 7 108 16 25 107 88 161 111 31 13 170 19 199 8z"/>
<path d="M783 1321 c-138 -50 -190 -110 -180 -206 7 -69 21 -89 88 -131 90
-54 128 -64 256 -64 123 0 144 6 251 73 58 38 75 67 76 137 1 58 0 61 -49 110
-52 53 -98 73 -196 86 -27 4 -52 11 -55 15 -11 18 -119 6 -191 -20z m239 -25
c100 -13 125 -24 182 -79 49 -47 59 -70 47 -115 -13 -47 -39 -70 -133 -119
-70 -37 -74 -38 -177 -38 -94 1 -113 4 -166 28 -131 61 -180 132 -144 209 18
40 97 91 168 110 79 20 98 21 223 4z"/>
<path d="M1780 1010 c-14 -4 -41 -15 -60 -25 -39 -20 -162 -44 -227 -45 -69 0
-90 -38 -79 -138 9 -81 25 -92 137 -92 85 0 94 2 172 41 97 49 114 62 133 108
38 92 -1 171 -76 151z m51 -36 c20 -24 15 -88 -10 -123 -14 -20 -52 -45 -107
-71 -75 -35 -93 -40 -158 -40 -93 0 -110 15 -111 98 0 50 3 58 25 69 14 6 72
15 128 19 91 6 109 10 145 35 48 33 69 36 88 13z"/>
<path d="M109 893 c-9 -10 -14 -42 -14 -87 0 -68 2 -73 39 -117 70 -84 264
-149 310 -104 34 34 33 193 -2 227 -10 10 -42 23 -72 28 -116 21 -150 30 -187
50 -46 24 -57 25 -74 3z m83 -37 c44 -20 163 -56 183 -56 9 0 27 -11 40 -25
41 -40 31 -155 -15 -170 -11 -4 -58 5 -110 21 -85 26 -93 31 -135 82 -47 57
-57 100 -35 143 13 23 28 24 72 5z"/>
<path d="M1179 837 c-65 -43 -85 -47 -238 -47 -152 0 -194 7 -242 43 -34 24
-70 19 -86 -13 -16 -31 -17 -131 -2 -162 14 -30 105 -93 154 -107 80 -23 207
-25 306 -6 91 18 95 20 151 75 l58 56 0 72 c0 59 -4 76 -20 92 -26 26 -39 25
-81 -3z m-484 -36 c45 -27 204 -54 273 -46 113 13 178 27 208 46 40 24 61 24
74 0 19 -36 5 -141 -19 -141 -3 0 -22 -14 -41 -31 -62 -56 -90 -62 -257 -62
l-152 0 -57 34 c-91 55 -104 71 -104 126 0 44 20 93 38 93 4 0 21 -8 37 -19z"/>
<path d="M1753 625 c-41 -29 -106 -45 -192 -49 -47 -2 -92 -4 -98 -5 -26 -2
-53 -41 -53 -75 0 -109 80 -140 247 -97 59 15 83 28 132 71 72 62 91 101 70
139 -18 32 -72 40 -106 16z m85 -42 c2 -16 -12 -38 -51 -78 -63 -63 -87 -74
-180 -85 -114 -13 -167 10 -167 71 0 42 32 59 115 59 83 0 181 21 204 44 24
25 75 17 79 -11z"/>
<path d="M628 449 c-13 -7 -18 -23 -18 -52 0 -38 5 -48 48 -88 26 -25 69 -61
96 -80 l48 -34 127 0 126 0 67 38 c36 21 84 58 107 82 34 37 41 52 41 84 0 57
-22 66 -93 42 -148 -51 -350 -49 -490 5 -44 16 -38 16 -59 3z m129 -56 c115
-39 245 -39 365 1 94 31 118 30 118 -7 0 -36 -59 -91 -135 -128 -66 -32 -76
-33 -175 -33 -92 1 -111 4 -155 26 -72 37 -135 102 -135 139 0 37 15 37 117 2z"/>
</g>
</svg>
