<?xml version="1.0" standalone="no"?>
<!DOCTYPE svg PUBLIC "-//W3C//DTD SVG 20010904//EN"
 "http://www.w3.org/TR/2001/REC-SVG-20010904/DTD/svg10.dtd">
<svg version="1.0" xmlns="http://www.w3.org/2000/svg"
 width="200.000000pt" height="200.000000pt" viewBox="0 0 200.000000 200.000000"
 preserveAspectRatio="xMidYMid meet">

<g transform="translate(0.000000,200.000000) scale(0.100000,-0.100000)"
fill="#000000" stroke="none">
<path d="M894 1456 c-55 -55 -48 -76 56 -183 69 -71 96 -93 116 -93 20 0 48
22 115 90 96 97 104 117 72 170 -25 43 -52 50 -194 50 l-131 0 -34 -34z"/>
<path d="M550 1263 c-43 -17 -39 -45 14 -101 32 -34 57 -51 90 -60 54 -14 60
-35 21 -72 -29 -27 -32 -61 -7 -82 34 -30 109 -68 134 -68 34 0 46 17 58 81 6
30 17 76 26 102 23 68 9 94 -78 153 -69 47 -72 48 -157 50 -47 2 -93 0 -101
-3z"/>
<path d="M1398 1260 c-60 -18 -158 -104 -158 -139 0 -36 41 -213 53 -228 16
-21 57 -15 116 18 91 51 99 71 49 118 -41 38 -32 58 33 77 31 9 55 26 82 58
41 50 47 80 18 96 -23 12 -154 12 -193 0z"/>
<path d="M1016 1048 c-17 -27 -52 -178 -61 -264 -4 -34 -17 -104 -30 -155 -22
-91 -22 -116 -1 -131 6 -4 73 -8 148 -8 172 0 169 -3 134 143 -13 56 -27 129
-31 162 -9 84 -43 225 -61 252 -20 32 -78 32 -98 1z"/>
</g>
</svg>
