<?xml version="1.0" standalone="no"?>
<!DOCTYPE svg PUBLIC "-//W3C//DTD SVG 20010904//EN"
 "http://www.w3.org/TR/2001/REC-SVG-20010904/DTD/svg10.dtd">
<svg version="1.0" xmlns="http://www.w3.org/2000/svg"
 width="200.000000pt" height="200.000000pt" viewBox="0 0 200.000000 200.000000"
 preserveAspectRatio="xMidYMid meet">

<g transform="translate(0.000000,200.000000) scale(0.100000,-0.100000)"
fill="#000000" stroke="none">
<path d="M940 1509 c-25 -11 -69 -30 -99 -41 -66 -25 -186 -140 -219 -209 -20
-42 -22 -61 -22 -245 l0 -199 -30 -63 c-17 -35 -30 -71 -30 -79 0 -9 17 -49
38 -90 70 -140 228 -249 256 -177 3 8 -4 34 -15 57 -19 36 -21 53 -17 132 4
66 11 102 28 137 28 57 23 72 -40 120 -57 43 -70 69 -70 140 0 73 17 92 75 85
46 -5 157 -73 176 -108 6 -12 10 -76 10 -160 -2 -183 12 -217 79 -210 8 1 23
11 33 23 14 17 17 42 17 167 0 180 7 197 99 253 68 40 128 50 150 25 19 -24
24 -74 11 -127 -11 -44 -19 -56 -66 -91 -62 -45 -65 -60 -32 -128 30 -61 33
-221 6 -264 -24 -36 -22 -55 6 -68 18 -9 31 -7 58 5 52 25 133 101 153 143 10
21 26 50 36 65 26 36 25 102 -3 147 -22 34 -23 50 -28 256 l-5 220 -32 55
c-17 30 -49 71 -70 91 -44 42 -123 99 -136 99 -5 0 -39 14 -77 30 -85 37 -171
41 -240 9z"/>
</g>
</svg>
