<?xml version="1.0" standalone="no"?>
<!DOCTYPE svg PUBLIC "-//W3C//DTD SVG 20010904//EN"
 "http://www.w3.org/TR/2001/REC-SVG-20010904/DTD/svg10.dtd">
<svg version="1.0" xmlns="http://www.w3.org/2000/svg"
 width="200.000000pt" height="200.000000pt" viewBox="0 0 200.000000 200.000000"
 preserveAspectRatio="xMidYMid meet">

<g transform="translate(0.000000,200.000000) scale(0.100000,-0.100000)"
fill="#000000" stroke="none">
<path d="M486 1518 c-13 -18 -16 -53 -16 -173 0 -197 12 -295 51 -407 50 -145
89 -209 197 -322 100 -103 271 -216 328 -216 34 0 155 68 237 133 142 114 235
244 294 412 l36 100 4 233 c5 243 2 262 -38 262 -10 0 -33 -9 -52 -20 -19 -11
-68 -27 -108 -36 -41 -8 -105 -25 -144 -37 -94 -29 -346 -31 -440 -3 -33 10
-100 27 -149 37 -49 10 -103 28 -121 39 -42 26 -60 25 -79 -2z m366 -410 c60
-52 72 -80 52 -127 -26 -62 -119 -90 -184 -56 -37 19 -110 110 -111 138 -4 80
20 100 117 95 68 -3 74 -5 126 -50z m618 32 c23 -23 26 -73 7 -106 -17 -31
-69 -87 -97 -107 -15 -10 -43 -17 -73 -17 -44 0 -54 4 -88 39 -53 53 -53 90
-1 138 65 62 91 73 165 73 54 0 71 -4 87 -20z m-420 -424 c47 0 109 4 138 8
l52 9 0 -28 c0 -34 -45 -78 -105 -100 -64 -25 -157 -17 -212 18 -49 31 -78 70
-69 93 5 14 14 15 59 8 28 -5 90 -9 137 -8z"/>
</g>
</svg>
