<?xml version="1.0" standalone="no"?>
<!DOCTYPE svg PUBLIC "-//W3C//DTD SVG 20010904//EN"
 "http://www.w3.org/TR/2001/REC-SVG-20010904/DTD/svg10.dtd">
<svg version="1.0" xmlns="http://www.w3.org/2000/svg"
 width="200.000000pt" height="200.000000pt" viewBox="0 0 200.000000 200.000000"
 preserveAspectRatio="xMidYMid meet">

<g transform="translate(0.000000,200.000000) scale(0.100000,-0.100000)"
fill="#000000" stroke="none">
<path d="M955 1554 c-44 -11 -152 -60 -185 -83 -98 -70 -173 -162 -216 -267
-27 -64 -29 -79 -29 -199 0 -125 1 -133 32 -203 62 -141 145 -226 293 -299
l75 -38 140 0 c132 0 143 2 200 29 166 77 261 179 320 340 25 69 27 83 23 193
-4 102 -8 127 -32 183 -36 83 -73 137 -136 196 -65 61 -101 86 -180 119 -55
23 -83 28 -175 30 -60 2 -119 2 -130 -1z m278 -139 c146 -63 238 -180 269
-343 21 -108 -27 -269 -105 -355 -45 -49 -69 -48 -107 6 -17 23 -59 59 -92 80
-55 33 -69 37 -127 37 -52 0 -77 -6 -119 -27 -48 -24 -68 -42 -124 -112 -10
-11 -27 -21 -38 -21 -33 0 -87 68 -125 157 -31 73 -35 91 -35 172 0 80 4 101
32 169 45 106 132 194 238 239 65 28 87 32 163 33 80 0 97 -4 170 -35z"/>
<path d="M957 1231 c-51 -49 -52 -50 -52 -110 0 -59 2 -62 49 -110 76 -77 150
-78 222 -3 73 76 72 148 -1 225 -45 46 -47 47 -106 47 -59 0 -62 -1 -112 -49z"/>
</g>
</svg>
