<?xml version="1.0" standalone="no"?>
<!DOCTYPE svg PUBLIC "-//W3C//DTD SVG 20010904//EN"
 "http://www.w3.org/TR/2001/REC-SVG-20010904/DTD/svg10.dtd">
<svg version="1.0" xmlns="http://www.w3.org/2000/svg"
 width="200.000000pt" height="200.000000pt" viewBox="0 0 200.000000 200.000000"
 preserveAspectRatio="xMidYMid meet">

<g transform="translate(0.000000,200.000000) scale(0.100000,-0.100000)"
fill="#000000" stroke="none">
<path d="M900 1580 c-164 -59 -271 -160 -343 -323 -30 -68 -32 -78 -32 -197 0
-114 2 -131 28 -195 36 -88 123 -203 189 -251 198 -141 429 -145 633 -9 89 59
163 155 206 266 21 55 24 81 24 189 0 115 -2 131 -29 195 -86 209 -273 341
-496 352 -87 4 -102 1 -180 -27z m59 -275 c17 -20 31 -47 31 -61 0 -35 -33
-79 -70 -94 -26 -11 -37 -10 -71 5 -46 21 -59 40 -59 87 0 60 40 96 106 97 24
1 39 -7 63 -34z m358 0 c23 -26 30 -75 17 -110 -10 -24 -81 -57 -107 -49 -12
3 -34 18 -49 32 -40 37 -39 93 2 134 28 27 36 30 73 25 28 -4 49 -14 64 -32z
m18 -309 c15 -11 17 -21 12 -61 -9 -61 -61 -132 -129 -177 -48 -30 -61 -33
-140 -36 -103 -5 -155 15 -221 82 -69 71 -100 172 -59 195 28 17 514 14 537
-3z"/>
</g>
</svg>
